<?xml version="1.0" standalone="no"?>
<!DOCTYPE svg PUBLIC "-//W3C//DTD SVG 20010904//EN"
 "http://www.w3.org/TR/2001/REC-SVG-20010904/DTD/svg10.dtd">
<svg version="1.0" xmlns="http://www.w3.org/2000/svg"
 width="348.000000pt" height="348.000000pt" viewBox="0 0 348.000000 348.000000"
 preserveAspectRatio="xMidYMid meet">

<g transform="translate(0.000000,348.000000) scale(0.100000,-0.100000)"
fill="#000000" stroke="none">
<path d="M1545 3404 c-516 -74 -961 -366 -1238 -814 -152 -246 -247 -574 -247
-848 1 -510 246 -1001 662 -1325 330 -257 767 -388 1158 -347 396 41 742 205
1025 485 208 206 336 412 430 691 47 139 66 259 72 444 5 151 2 192 -16 300
-65 372 -239 695 -522 964 -220 209 -486 350 -795 422 -105 24 -142 28 -309
30 -104 1 -203 0 -220 -2z m506 -153 c371 -80 691 -284 920 -586 68 -91 103
-150 163 -275 66 -140 109 -280 131 -431 23 -150 16 -401 -14 -537 -107 -487
-419 -877 -866 -1084 -495 -229 -1057 -184 -1510 120 -340 229 -569 571 -656
982 -32 148 -32 426 -2 581 63 316 206 583 432 809 244 244 542 393 881 440
112 15 412 4 521 -19z"/>
<path d="M1235 2705 c-134 -25 -205 -60 -292 -146 -85 -84 -134 -196 -153
-349 -13 -111 -13 -826 1 -927 35 -261 156 -410 389 -480 84 -25 946 -32 1064
-8 224 44 360 171 423 395 16 59 18 110 18 550 0 373 -3 499 -14 545 -53 238
-200 379 -438 420 -114 20 -890 20 -998 0z m1003 -170 c81 -19 117 -38 170
-89 53 -50 77 -94 99 -183 15 -59 17 -127 17 -508 -1 -459 -5 -514 -46 -601
-51 -109 -151 -176 -294 -195 -51 -7 -236 -9 -505 -7 -364 4 -431 7 -476 21
-112 37 -194 120 -229 230 -26 84 -40 498 -26 801 9 221 13 259 34 315 37 103
118 180 223 211 100 30 906 34 1033 5z"/>
<path d="M2169 2349 c-23 -25 -29 -40 -29 -76 0 -38 5 -50 34 -79 104 -104
251 51 150 157 -23 24 -36 29 -77 29 -42 0 -53 -4 -78 -31z"/>
<path d="M1628 2235 c-186 -47 -328 -192 -368 -376 -17 -76 -8 -209 18 -282
78 -216 313 -357 530 -318 246 44 413 242 413 491 0 217 -122 394 -325 469
-76 28 -193 35 -268 16z m234 -183 c65 -28 133 -94 165 -161 37 -75 40 -200 6
-273 -30 -66 -96 -133 -162 -165 -47 -24 -69 -28 -136 -28 -67 0 -89 4 -137
28 -187 92 -241 334 -112 504 85 111 247 152 376 95z"/>
</g>
</svg>
